FILE "Battlecorps (demo) (1994)(Core Design)(EU)(en).img" BINARY
  TRACK 01 MODE1/2352
    INDEX 01 00:00:00
  TRACK 02 AUDIO
    PREGAP 00:02:00
    INDEX 01 01:07:16
  TRACK 03 AUDIO
    INDEX 01 07:25:02
